<mxfile host="app.diagrams.net" agent="Mozilla/5.0 (Windows NT 10.0; Win64; x64) AppleWebKit/537.36 (KHTML, like Gecko) Chrome/129.0.0.0 Safari/537.36" version="24.7.17">
  <diagram name="페이지-1" id="rKD8FWxXjf52EDeDf79B">
    <mxGraphModel dx="1092" dy="620" grid="1" gridSize="10" guides="1" tooltips="1" connect="1" arrows="1" fold="1" page="1" pageScale="1" pageWidth="1200" pageHeight="1920" math="0" shadow="0">
      <root>
        <mxCell id="0" />
        <mxCell id="1" parent="0" />
        <mxCell id="8LXtG0pArvj0P_hDHz5C-16" value="settinghmi" style="rounded=0;whiteSpace=wrap;html=1;" vertex="1" parent="1">
          <mxGeometry x="120" y="40" width="120" height="40" as="geometry" />
        </mxCell>
        <mxCell id="8LXtG0pArvj0P_hDHz5C-17" value="CLU" style="rounded=0;whiteSpace=wrap;html=1;" vertex="1" parent="1">
          <mxGeometry x="960" y="40" width="120" height="40" as="geometry" />
        </mxCell>
        <mxCell id="8LXtG0pArvj0P_hDHz5C-20" value="" style="endArrow=none;html=1;rounded=0;entryX=0.5;entryY=1;entryDx=0;entryDy=0;strokeColor=#B3B3B3;" edge="1" parent="1" target="8LXtG0pArvj0P_hDHz5C-16">
          <mxGeometry width="50" height="50" relative="1" as="geometry">
            <mxPoint x="180" y="570" as="sourcePoint" />
            <mxPoint x="420" y="270" as="targetPoint" />
          </mxGeometry>
        </mxCell>
        <mxCell id="8LXtG0pArvj0P_hDHz5C-23" value="alt" style="swimlane;horizontal=0;whiteSpace=wrap;html=1;" vertex="1" parent="1">
          <mxGeometry x="40" y="120" width="240" height="80" as="geometry" />
        </mxCell>
        <mxCell id="8LXtG0pArvj0P_hDHz5C-27" value="&amp;nbsp;[ TBD ]" style="text;html=1;align=center;verticalAlign=middle;whiteSpace=wrap;rounded=0;fontSize=9;fontColor=#FF3333;" vertex="1" parent="8LXtG0pArvj0P_hDHz5C-23">
          <mxGeometry x="25" width="115" height="20" as="geometry" />
        </mxCell>
        <mxCell id="8LXtG0pArvj0P_hDHz5C-24" value="" style="endArrow=classic;html=1;rounded=0;fontSize=5;" edge="1" parent="8LXtG0pArvj0P_hDHz5C-23">
          <mxGeometry relative="1" as="geometry">
            <mxPoint x="140" y="30" as="sourcePoint" />
            <mxPoint x="140" y="70" as="targetPoint" />
            <Array as="points">
              <mxPoint x="80" y="30" />
              <mxPoint x="80" y="70" />
            </Array>
          </mxGeometry>
        </mxCell>
        <mxCell id="8LXtG0pArvj0P_hDHz5C-25" value="Disable &quot;Start&quot; Button" style="edgeLabel;resizable=0;html=1;;align=center;verticalAlign=middle;fontSize=9;labelBorderColor=default;labelBackgroundColor=#FFF2CC;" connectable="0" vertex="1" parent="8LXtG0pArvj0P_hDHz5C-24">
          <mxGeometry relative="1" as="geometry" />
        </mxCell>
        <mxCell id="8LXtG0pArvj0P_hDHz5C-30" value="" style="endArrow=classic;html=1;rounded=0;" edge="1" parent="1">
          <mxGeometry width="50" height="50" relative="1" as="geometry">
            <mxPoint x="180" y="110" as="sourcePoint" />
            <mxPoint x="1020" y="110" as="targetPoint" />
          </mxGeometry>
        </mxCell>
        <mxCell id="8LXtG0pArvj0P_hDHz5C-32" value="&lt;span style=&quot;color: rgb(23, 43, 77); font-family: &amp;quot;Source Sans Pro&amp;quot;, &amp;quot;Lucida Sans Unicode&amp;quot;, Arial, NG; font-size: 9px; text-align: start;&quot;&gt;OperationConditions(TimerType = PERFORMANCE, RefTimeType = BEST, UnitOfDist = VAL_FROM_USM, Status = STOP)&lt;/span&gt;" style="edgeLabel;html=1;align=center;verticalAlign=middle;resizable=0;points=[];" vertex="1" connectable="0" parent="8LXtG0pArvj0P_hDHz5C-30">
          <mxGeometry x="-0.1423" y="-1" relative="1" as="geometry">
            <mxPoint y="-11" as="offset" />
          </mxGeometry>
        </mxCell>
        <mxCell id="8LXtG0pArvj0P_hDHz5C-31" value="" style="endArrow=none;html=1;rounded=0;entryX=0.5;entryY=1;entryDx=0;entryDy=0;strokeColor=#B3B3B3;" edge="1" parent="1">
          <mxGeometry width="50" height="50" relative="1" as="geometry">
            <mxPoint x="1019.69" y="570" as="sourcePoint" />
            <mxPoint x="1019.69" y="80" as="targetPoint" />
          </mxGeometry>
        </mxCell>
      </root>
    </mxGraphModel>
  </diagram>
</mxfile>
